<?xml version="1.0" encoding="utf-8"?>
<svg version="1.1" xmlns:xlink="http://www.w3.org/1999/xlink" width="10px" height="10px" xmlns="http://www.w3.org/2000/svg">
  <g transform="matrix(1 0 0 1 -12 -331 )">
    <path d="M 17 331  C 19.8 331  22 333.2  22 336  C 22 338.8  19.8 341  17 341  C 14.2 341  12 338.8  12 336  C 12 333.2  14.2 331  17 331  Z " fill-rule="nonzero" fill="#ffffff" stroke="none" />
    <path d="M 17 331.5  C 19.52 331.5  21.5 333.48  21.5 336  C 21.5 338.52  19.52 340.5  17 340.5  C 14.48 340.5  12.5 338.52  12.5 336  C 12.5 333.48  14.48 331.5  17 331.5  Z " stroke-width="1" stroke="#797979" fill="none" />
  </g>
</svg>