<?xml version="1.0" encoding="utf-8"?>
<svg version="1.1" xmlns:xlink="http://www.w3.org/1999/xlink" width="18px" height="18px" preserveAspectRatio="xMinYMid meet" viewBox="1181 1718  18 16" xmlns="http://www.w3.org/2000/svg">
  <path d="M 368.5 1400  L 368.5 1435  A 5 5 0 0 1 363.5 1440.5 L -5 1440.5  A 5 5 0 0 0 -9.5 1445.5 L -9.5 1945  A 5 5 0 0 0 -4.5 1950.5 L 325 1950.5  A 5 5 0 0 0 330.5 1945.5 A 5 5 0 0 1 335.5 1940.5 L 1185 1940.5  A 5 5 0 0 0 1190.5 1935.5 L 1190.5 1726.5  A 0.5 0.5 0 0 0 1190 1726.5 " stroke-width="1" stroke="#0d7aff" fill="none" />
  <path d="M 1195.05355339059 1731.14644660941  L 1190.40710678119 1726.5  L 1195.05355339059 1721.85355339059  L 1194.34644660941 1721.14644660941  L 1189.34644660941 1726.14644660941  L 1188.99289321881 1726.5  L 1189.34644660941 1726.85355339059  L 1194.34644660941 1731.85355339059  L 1195.05355339059 1731.14644660941  Z " fill-rule="nonzero" fill="#0d7aff" stroke="none" />
</svg>