<?xml version="1.0" encoding="utf-8"?>
<svg version="1.1" xmlns:xlink="http://www.w3.org/1999/xlink" width="13px" height="10px" preserveAspectRatio="xMinYMid meet" viewBox="313 1389  13 8" xmlns="http://www.w3.org/2000/svg">
  <path d="M 326 1393.5  L 323 1393.5  A 5 5 0 0 0 318.5 1398 L 318.5 1437  A 3 3 0 0 1 321.5 1440 A 3 3 0 0 1 318.5 1443 L 318.5 1934  A 5 5 0 0 0 323.5 1939.5 L 564 1939.5  A 5 5 0 0 1 569.5 1944.5 L 569.5 1956  " stroke-width="1" stroke="#0d7aff" fill="none" />
  <path d="M 574.146446609407 1950.94644660941  L 569.5 1955.59289321881  L 564.853553390593 1950.94644660941  L 564.146446609407 1951.65355339059  L 569.146446609407 1956.65355339059  L 569.5 1957.00710678119  L 569.853553390593 1956.65355339059  L 574.853553390593 1951.65355339059  L 574.146446609407 1950.94644660941  Z " fill-rule="nonzero" fill="#0d7aff" stroke="none" />
</svg>