<?xml version="1.0" encoding="utf-8"?>
<svg version="1.1" xmlns:xlink="http://www.w3.org/1999/xlink" width="12px" height="12px" viewBox="400 802  12 12" xmlns="http://www.w3.org/2000/svg">
  <path d="M 406 802  C 409.36 802  412 804.64  412 808  C 412 811.36  409.36 814  406 814  C 402.64 814  400 811.36  400 808  C 400 804.64  402.64 802  406 802  Z " fill-rule="nonzero" fill="#ffffff" stroke="none" />
  <path d="M 406 802.5  C 409.08 802.5  411.5 804.92  411.5 808  C 411.5 811.08  409.08 813.5  406 813.5  C 402.92 813.5  400.5 811.08  400.5 808  C 400.5 804.92  402.92 802.5  406 802.5  Z " stroke-width="1" stroke="#797979" fill="none" />
  <path d="M 406 811  C 404.32 811  403 809.68  403 808  C 403 806.32  404.32 805  406 805  C 407.68 805  409 806.32  409 808  C 409 809.68  407.68 811  406 811  " fill-rule="nonzero" fill="#797979" stroke="none" />
</svg>