<?xml version="1.0" encoding="utf-8"?>
<svg version="1.1" xmlns:xlink="http://www.w3.org/1999/xlink" width="12px" height="12px" viewBox="400 856  12 12" xmlns="http://www.w3.org/2000/svg">
  <path d="M 406 856  C 409.36 856  412 858.64  412 862  C 412 865.36  409.36 868  406 868  C 402.64 868  400 865.36  400 862  C 400 858.64  402.64 856  406 856  Z " fill-rule="nonzero" fill="#ffffff" stroke="none" />
  <path d="M 406 856.5  C 409.08 856.5  411.5 858.92  411.5 862  C 411.5 865.08  409.08 867.5  406 867.5  C 402.92 867.5  400.5 865.08  400.5 862  C 400.5 858.92  402.92 856.5  406 856.5  Z " stroke-width="1" stroke="#797979" fill="none" />
  <path d="M 406 865  C 404.32 865  403 863.68  403 862  C 403 860.32  404.32 859  406 859  C 407.68 859  409 860.32  409 862  C 409 863.68  407.68 865  406 865  " fill-rule="nonzero" fill="#797979" stroke="none" />
</svg>