<?xml version="1.0" encoding="utf-8"?>
<svg version="1.1" xmlns:xlink="http://www.w3.org/1999/xlink" width="50px" height="50px" xmlns="http://www.w3.org/2000/svg">
  <g transform="matrix(1 0 0 1 -207 -467 )">
    <path d="M 207 467  L 257 467  L 257 517  L 207 517  L 207 467  " fill-rule="nonzero" fill="#cccccc" stroke="none" />
    <path d="M 211 471  L 253 471  L 253 513  L 211 513  L 211 471  " fill-rule="nonzero" fill="#ffffff" stroke="none" />
    <path d="M 236.75 482  C 234.65 482  233 480.35  233 478.25  C 233 476.15  234.65 474.5  236.75 474.5  C 238.85 474.5  240.5 476.15  240.5 478.25  C 240.5 480.35  238.85 482  236.75 482  " fill-rule="nonzero" fill="#cccccc" stroke="none" />
    <path d="M 213 512  L 213 490.55  L 222.75 480.8  L 236.4 488.6  L 244.2 486.65  L 252 488.6  L 252 512  L 213 512  " fill-rule="nonzero" fill="#169bd5" stroke="none" />
  </g>
</svg>