<?xml version="1.0" encoding="utf-8"?>
<svg version="1.1" xmlns:xlink="http://www.w3.org/1999/xlink" width="218px" height="10px" preserveAspectRatio="xMinYMid meet" viewBox="987 556  218 8" xmlns="http://www.w3.org/2000/svg">
  <path d="M 1159.5 390  L 1159.5 405  A 5 5 0 0 0 1164.5 410.5 L 1195 410.5  A 5 5 0 0 1 1200.5 415.5 L 1200.5 555  A 5 5 0 0 1 1195.5 560.5 L 997 560.5  A 5 5 0 0 0 992.5 565.5 L 992.5 573  " stroke-width="1" stroke="#0d7aff" fill="none" />
  <path d="M 997.146446609407 567.946446609407  L 992.5 572.592893218814  L 987.853553390593 567.946446609407  L 987.146446609407 568.653553390593  L 992.146446609407 573.653553390593  L 992.5 574.007106781186  L 992.853553390593 573.653553390593  L 997.853553390593 568.653553390593  L 997.146446609407 567.946446609407  Z " fill-rule="nonzero" fill="#0d7aff" stroke="none" />
</svg>