<?xml version="1.0" encoding="utf-8"?>
<svg version="1.1" xmlns:xlink="http://www.w3.org/1999/xlink" width="12px" height="12px" viewBox="353 417  12 12" xmlns="http://www.w3.org/2000/svg">
  <path d="M 359 417  C 362.36 417  365 419.64  365 423  C 365 426.36  362.36 429  359 429  C 355.64 429  353 426.36  353 423  C 353 419.64  355.64 417  359 417  Z " fill-rule="nonzero" fill="#ffffff" stroke="none" />
  <path d="M 359 417.5  C 362.08 417.5  364.5 419.92  364.5 423  C 364.5 426.08  362.08 428.5  359 428.5  C 355.92 428.5  353.5 426.08  353.5 423  C 353.5 419.92  355.92 417.5  359 417.5  Z " stroke-width="1" stroke="#797979" fill="none" />
  <path d="M 359 426  C 357.32 426  356 424.68  356 423  C 356 421.32  357.32 420  359 420  C 360.68 420  362 421.32  362 423  C 362 424.68  360.68 426  359 426  " fill-rule="nonzero" fill="#797979" stroke="none" />
</svg>