<?xml version="1.0" encoding="utf-8"?>
<svg version="1.1" xmlns:xlink="http://www.w3.org/1999/xlink" width="12px" height="12px" viewBox="260 370  12 12" xmlns="http://www.w3.org/2000/svg">
  <path d="M 266 370  C 269.36 370  272 372.64  272 376  C 272 379.36  269.36 382  266 382  C 262.64 382  260 379.36  260 376  C 260 372.64  262.64 370  266 370  Z " fill-rule="nonzero" fill="#ffffff" stroke="none" />
  <path d="M 266 370.5  C 269.08 370.5  271.5 372.92  271.5 376  C 271.5 379.08  269.08 381.5  266 381.5  C 262.92 381.5  260.5 379.08  260.5 376  C 260.5 372.92  262.92 370.5  266 370.5  Z " stroke-width="1" stroke="#797979" fill="none" />
  <path d="M 266 379  C 264.32 379  263 377.68  263 376  C 263 374.32  264.32 373  266 373  C 267.68 373  269 374.32  269 376  C 269 377.68  267.68 379  266 379  " fill-rule="nonzero" fill="#797979" stroke="none" />
</svg>