<?xml version="1.0" encoding="utf-8"?>
<svg version="1.1" xmlns:xlink="http://www.w3.org/1999/xlink" width="25px" height="25px" xmlns="http://www.w3.org/2000/svg">
  <g transform="matrix(1 0 0 1 -157 -863 )">
    <path d="M 169.5 863  C 176.5 863  182 868.5  182 875.5  C 182 882.5  176.5 888  169.5 888  C 162.5 888  157 882.5  157 875.5  C 157 868.5  162.5 863  169.5 863  Z " fill-rule="nonzero" fill="#ffffff" stroke="none" />
    <path d="M 169.5 863.5  C 176.22 863.5  181.5 868.78  181.5 875.5  C 181.5 882.22  176.22 887.5  169.5 887.5  C 162.78 887.5  157.5 882.22  157.5 875.5  C 157.5 868.78  162.78 863.5  169.5 863.5  Z " stroke-width="1" stroke="#0000ff" fill="none" />
  </g>
</svg>