<?xml version="1.0" encoding="utf-8"?>
<svg version="1.1" xmlns:xlink="http://www.w3.org/1999/xlink" width="12px" height="12px" viewBox="412 634  12 12" xmlns="http://www.w3.org/2000/svg">
  <path d="M 418 634  C 421.36 634  424 636.64  424 640  C 424 643.36  421.36 646  418 646  C 414.64 646  412 643.36  412 640  C 412 636.64  414.64 634  418 634  Z " fill-rule="nonzero" fill="#ffffff" stroke="none" />
  <path d="M 418 634.5  C 421.08 634.5  423.5 636.92  423.5 640  C 423.5 643.08  421.08 645.5  418 645.5  C 414.92 645.5  412.5 643.08  412.5 640  C 412.5 636.92  414.92 634.5  418 634.5  Z " stroke-width="1" stroke="#797979" fill="none" />
  <path d="M 418 643  C 416.32 643  415 641.68  415 640  C 415 638.32  416.32 637  418 637  C 419.68 637  421 638.32  421 640  C 421 641.68  419.68 643  418 643  " fill-rule="nonzero" fill="#797979" stroke="none" />
</svg>