<?xml version="1.0" encoding="utf-8"?>
<svg version="1.1" xmlns:xlink="http://www.w3.org/1999/xlink" width="12px" height="12px" viewBox="480 634  12 12" xmlns="http://www.w3.org/2000/svg">
  <path d="M 486 634  C 489.36 634  492 636.64  492 640  C 492 643.36  489.36 646  486 646  C 482.64 646  480 643.36  480 640  C 480 636.64  482.64 634  486 634  Z " fill-rule="nonzero" fill="#ffffff" stroke="none" />
  <path d="M 486 634.5  C 489.08 634.5  491.5 636.92  491.5 640  C 491.5 643.08  489.08 645.5  486 645.5  C 482.92 645.5  480.5 643.08  480.5 640  C 480.5 636.92  482.92 634.5  486 634.5  Z " stroke-width="1" stroke="#797979" fill="none" />
  <path d="M 486 643  C 484.32 643  483 641.68  483 640  C 483 638.32  484.32 637  486 637  C 487.68 637  489 638.32  489 640  C 489 641.68  487.68 643  486 643  " fill-rule="nonzero" fill="#797979" stroke="none" />
</svg>