<?xml version="1.0" encoding="utf-8"?>
<svg version="1.1" xmlns:xlink="http://www.w3.org/1999/xlink" width="12px" height="12px" viewBox="548 634  12 12" xmlns="http://www.w3.org/2000/svg">
  <path d="M 554 634  C 557.36 634  560 636.64  560 640  C 560 643.36  557.36 646  554 646  C 550.64 646  548 643.36  548 640  C 548 636.64  550.64 634  554 634  Z " fill-rule="nonzero" fill="#ffffff" stroke="none" />
  <path d="M 554 634.5  C 557.08 634.5  559.5 636.92  559.5 640  C 559.5 643.08  557.08 645.5  554 645.5  C 550.92 645.5  548.5 643.08  548.5 640  C 548.5 636.92  550.92 634.5  554 634.5  Z " stroke-width="1" stroke="#797979" fill="none" />
  <path d="M 554 643  C 552.32 643  551 641.68  551 640  C 551 638.32  552.32 637  554 637  C 555.68 637  557 638.32  557 640  C 557 641.68  555.68 643  554 643  " fill-rule="nonzero" fill="#797979" stroke="none" />
</svg>