<?xml version="1.0" encoding="utf-8"?>
<svg version="1.1" xmlns:xlink="http://www.w3.org/1999/xlink" width="12px" height="12px" viewBox="345 634  12 12" xmlns="http://www.w3.org/2000/svg">
  <path d="M 351 634  C 354.36 634  357 636.64  357 640  C 357 643.36  354.36 646  351 646  C 347.64 646  345 643.36  345 640  C 345 636.64  347.64 634  351 634  Z " fill-rule="nonzero" fill="#ffffff" stroke="none" />
  <path d="M 351 634.5  C 354.08 634.5  356.5 636.92  356.5 640  C 356.5 643.08  354.08 645.5  351 645.5  C 347.92 645.5  345.5 643.08  345.5 640  C 345.5 636.92  347.92 634.5  351 634.5  Z " stroke-width="1" stroke="#797979" fill="none" />
  <path d="M 351 643  C 349.32 643  348 641.68  348 640  C 348 638.32  349.32 637  351 637  C 352.68 637  354 638.32  354 640  C 354 641.68  352.68 643  351 643  " fill-rule="nonzero" fill="#797979" stroke="none" />
</svg>