<?xml version="1.0" encoding="utf-8"?>
<svg version="1.1" xmlns:xlink="http://www.w3.org/1999/xlink" width="12px" height="12px" viewBox="185 297  12 12" xmlns="http://www.w3.org/2000/svg">
  <path d="M 191 297  C 194.36 297  197 299.64  197 303  C 197 306.36  194.36 309  191 309  C 187.64 309  185 306.36  185 303  C 185 299.64  187.64 297  191 297  Z " fill-rule="nonzero" fill="#ffffff" stroke="none" />
  <path d="M 191 297.5  C 194.08 297.5  196.5 299.92  196.5 303  C 196.5 306.08  194.08 308.5  191 308.5  C 187.92 308.5  185.5 306.08  185.5 303  C 185.5 299.92  187.92 297.5  191 297.5  Z " stroke-width="1" stroke="#797979" fill="none" />
  <path d="M 191 306  C 189.32 306  188 304.68  188 303  C 188 301.32  189.32 300  191 300  C 192.68 300  194 301.32  194 303  C 194 304.68  192.68 306  191 306  " fill-rule="nonzero" fill="#797979" stroke="none" />
</svg>