<?xml version="1.0" encoding="utf-8"?>
<svg version="1.1" xmlns:xlink="http://www.w3.org/1999/xlink" width="1000px" height="10px" preserveAspectRatio="xMinYMid meet" viewBox="195 1346  1000 8" xmlns="http://www.w3.org/2000/svg">
  <path d="M 368.5 1400  L 368.5 1405  A 5 5 0 0 1 363.5 1410.5 L 205 1410.5  A 5 5 0 0 1 200.5 1405.5 L 200.5 1355  A 5 5 0 0 1 205.5 1350.5 L 1185 1350.5  A 5 5 0 0 1 1190.5 1355.5 L 1190.5 1591  A 5 5 0 0 0 1195.5 1596.5 L 1204 1596.5  " stroke-width="1" stroke="#0d7aff" fill="none" />
  <path d="M 1198.94644660941 1591.85355339059  L 1203.59289321881 1596.5  L 1198.94644660941 1601.14644660941  L 1199.65355339059 1601.85355339059  L 1204.65355339059 1596.85355339059  L 1205.00710678119 1596.5  L 1204.65355339059 1596.14644660941  L 1199.65355339059 1591.14644660941  L 1198.94644660941 1591.85355339059  Z " fill-rule="nonzero" fill="#0d7aff" stroke="none" />
</svg>