<?xml version="1.0" encoding="utf-8"?>
<svg version="1.1" xmlns:xlink="http://www.w3.org/1999/xlink" width="10px" height="16px" preserveAspectRatio="xMidYMin meet" viewBox="278 2005  8 16" xmlns="http://www.w3.org/2000/svg">
  <path d="M 326 1393.5  L 323 1393.5  A 5 5 0 0 0 318.5 1398 L 318.5 1407  A 3 3 0 0 1 321.5 1410 A 3 3 0 0 1 318.5 1413 L 318.5 2005  A 5 5 0 0 1 313.5 2010.5 L 287 2010.5  A 5 5 0 0 0 282.5 2015.5 L 282.5 2020  " stroke-width="1" stroke="#0d7aff" fill="none" />
  <path d="M 287.146446609407 2014.94644660941  L 282.5 2019.59289321881  L 277.853553390593 2014.94644660941  L 277.146446609407 2015.65355339059  L 282.146446609407 2020.65355339059  L 282.5 2021.00710678119  L 282.853553390593 2020.65355339059  L 287.853553390593 2015.65355339059  L 287.146446609407 2014.94644660941  Z " fill-rule="nonzero" fill="#0d7aff" stroke="none" />
</svg>