<?xml version="1.0" encoding="utf-8"?>
<svg version="1.1" xmlns:xlink="http://www.w3.org/1999/xlink" width="1050px" height="160px" xmlns="http://www.w3.org/2000/svg">
  <g transform="matrix(1 0 0 1 -193 -1064 )">
    <path d="M 194 1066  A 1 1 0 0 1 195 1065 L 1241 1065  A 1 1 0 0 1 1242 1066 L 1242 1222  A 1 1 0 0 1 1241 1223 L 195 1223  A 1 1 0 0 1 194 1222 L 194 1066  Z " fill-rule="nonzero" fill="#66ccff" stroke="none" fill-opacity="0.4" />
    <path d="M 193.5 1066  A 1.5 1.5 0 0 1 195 1064.5 L 1241 1064.5  A 1.5 1.5 0 0 1 1242.5 1066 L 1242.5 1222  A 1.5 1.5 0 0 1 1241 1223.5 L 195 1223.5  A 1.5 1.5 0 0 1 193.5 1222 L 193.5 1066  Z " stroke-width="1" stroke-dasharray="9,4" stroke="#797979" fill="none" stroke-dashoffset="0.5" />
  </g>
</svg>