<?xml version="1.0" encoding="utf-8"?>
<svg version="1.1" xmlns:xlink="http://www.w3.org/1999/xlink" width="12px" height="12px" viewBox="277 1395  12 12" xmlns="http://www.w3.org/2000/svg">
  <path d="M 283 1395  C 286.36 1395  289 1397.64  289 1401  C 289 1404.36  286.36 1407  283 1407  C 279.64 1407  277 1404.36  277 1401  C 277 1397.64  279.64 1395  283 1395  Z " fill-rule="nonzero" fill="#ffffff" stroke="none" />
  <path d="M 283 1395.5  C 286.08 1395.5  288.5 1397.92  288.5 1401  C 288.5 1404.08  286.08 1406.5  283 1406.5  C 279.92 1406.5  277.5 1404.08  277.5 1401  C 277.5 1397.92  279.92 1395.5  283 1395.5  Z " stroke-width="1" stroke="#797979" fill="none" />
  <path d="M 283 1404  C 281.32 1404  280 1402.68  280 1401  C 280 1399.32  281.32 1398  283 1398  C 284.68 1398  286 1399.32  286 1401  C 286 1402.68  284.68 1404  283 1404  " fill-rule="nonzero" fill="#797979" stroke="none" />
</svg>