<?xml version="1.0" encoding="utf-8"?>
<svg version="1.1" xmlns:xlink="http://www.w3.org/1999/xlink" width="12px" height="12px" viewBox="348 379  12 12" xmlns="http://www.w3.org/2000/svg">
  <path d="M 354 379  C 357.36 379  360 381.64  360 385  C 360 388.36  357.36 391  354 391  C 350.64 391  348 388.36  348 385  C 348 381.64  350.64 379  354 379  Z " fill-rule="nonzero" fill="#ffffff" stroke="none" />
  <path d="M 354 379.5  C 357.08 379.5  359.5 381.92  359.5 385  C 359.5 388.08  357.08 390.5  354 390.5  C 350.92 390.5  348.5 388.08  348.5 385  C 348.5 381.92  350.92 379.5  354 379.5  Z " stroke-width="1" stroke="#797979" fill="none" />
  <path d="M 354 388  C 352.32 388  351 386.68  351 385  C 351 383.32  352.32 382  354 382  C 355.68 382  357 383.32  357 385  C 357 386.68  355.68 388  354 388  " fill-rule="nonzero" fill="#797979" stroke="none" />
</svg>