<?xml version="1.0" encoding="utf-8"?>
<svg version="1.1" xmlns:xlink="http://www.w3.org/1999/xlink" width="12px" height="12px" viewBox="514 463  12 12" xmlns="http://www.w3.org/2000/svg">
  <path d="M 520 463  C 523.36 463  526 465.64  526 469  C 526 472.36  523.36 475  520 475  C 516.64 475  514 472.36  514 469  C 514 465.64  516.64 463  520 463  Z " fill-rule="nonzero" fill="#ffffff" stroke="none" />
  <path d="M 520 463.5  C 523.08 463.5  525.5 465.92  525.5 469  C 525.5 472.08  523.08 474.5  520 474.5  C 516.92 474.5  514.5 472.08  514.5 469  C 514.5 465.92  516.92 463.5  520 463.5  Z " stroke-width="1" stroke="#797979" fill="none" />
  <path d="M 520 472  C 518.32 472  517 470.68  517 469  C 517 467.32  518.32 466  520 466  C 521.68 466  523 467.32  523 469  C 523 470.68  521.68 472  520 472  " fill-rule="nonzero" fill="#797979" stroke="none" />
</svg>